<svg xmlns="http://www.w3.org/2000/svg" version="1.1" xmlns:xlink="http://www.w3.org/1999/xlink" xmlns:svgjs="http://svgjs.com/svgjs" width="1440" height="560" preserveAspectRatio="none" viewBox="0 0 1440 560"><g mask="url(&quot;#SvgjsMask1067&quot;)" fill="none"><path d="M23.828,68.648C46.399,68.821,63.425,50.439,74.318,30.669C84.763,11.712,89.126,-11.191,78.069,-29.798C67.207,-48.077,45.091,-54.283,23.828,-54.295C2.539,-54.307,-19.784,-48.243,-30.519,-29.859C-41.326,-11.351,-35.692,11.139,-25.339,29.905C-14.536,49.487,1.465,68.476,23.828,68.648" fill="rgba(28, 83, 142, 0.4)" class="triangle-float2"></path><path d="M976.638,551.959C1028.985,554.235,1082.563,536.197,1110.39,491.801C1139.826,444.839,1142.302,382.802,1111.583,336.669C1083.369,294.299,1027.469,288.204,976.638,290.938C931.493,293.366,888.105,311.271,864.697,349.949C840.452,390.011,838.925,440.025,861.622,480.984C885.026,523.218,928.399,549.861,976.638,551.959" fill="rgba(28, 83, 142, 0.4)" class="triangle-float3"></path><path d="M986.633,119.543C1021.862,121.039,1057.455,109.443,1077.148,80.194C1099.296,47.299,1108.067,3.606,1087.532,-30.319C1067.518,-63.384,1025.269,-70.392,986.633,-69.346C950.219,-68.36,912.293,-57.037,894.772,-25.101C877.744,5.937,889.541,43.148,908.52,73.033C925.932,100.45,954.183,118.165,986.633,119.543" fill="rgba(28, 83, 142, 0.4)" class="triangle-float3"></path><path d="M475.538,712.983C520.248,711.895,564.016,691.813,585.052,652.346C605.072,614.786,593.874,569.889,570.91,534.054C549.915,501.292,514.44,480.579,475.538,481.452C438.071,482.293,408.273,507.116,387.301,538.174C362.577,574.789,336.474,618.471,356.382,657.912C377.514,699.778,428.655,714.124,475.538,712.983" fill="rgba(28, 83, 142, 0.4)" class="triangle-float2"></path><path d="M-22.195,308.434C-5.025,308.864,12.757,302.682,21.185,287.717C29.492,272.967,24.707,255.136,15.997,240.621C7.586,226.604,-5.85,215.654,-22.195,215.422C-38.91,215.185,-54.073,224.965,-62.312,239.51C-70.434,253.848,-70.255,271.391,-61.966,285.633C-53.727,299.788,-38.568,308.024,-22.195,308.434" fill="rgba(28, 83, 142, 0.4)" class="triangle-float1"></path><path d="M113.325,224.418C158.342,223.543,195.712,193.679,218.356,154.761C241.153,115.58,249.806,67.664,227.488,28.209C204.873,-11.771,159.258,-30.825,113.325,-30.922C67.205,-31.019,21.808,-11.968,-1.675,27.726C-25.558,68.095,-22.701,118.496,0.973,158.988C24.418,199.087,66.884,225.321,113.325,224.418" fill="rgba(28, 83, 142, 0.4)" class="triangle-float2"></path><path d="M-15.442,578.629C3.453,578.726,17.152,562.569,26.145,545.952C34.624,530.284,38.644,511.272,29.18,496.179C20.147,481.774,1.538,478.749,-15.442,479.632C-30.663,480.424,-44.657,487.484,-52.688,500.438C-61.204,514.173,-63.247,530.94,-56.297,545.53C-48.219,562.489,-34.227,578.533,-15.442,578.629" fill="rgba(28, 83, 142, 0.4)" class="triangle-float1"></path><path d="M542.012,707.365C594.581,706.216,635.507,666.049,660.165,619.607C683.145,576.324,685.491,525.137,661.43,482.446C636.926,438.969,591.916,410.491,542.012,409.968C491.208,409.436,444.089,436.194,418.182,479.899C391.744,524.499,389.771,579.439,414.561,624.976C440.485,672.596,487.806,708.55,542.012,707.365" fill="rgba(28, 83, 142, 0.4)" class="triangle-float3"></path><path d="M1403.839,311.601C1445.299,311.536,1477.699,280.636,1498.861,244.983C1520.579,208.393,1532.52,164.869,1513.533,126.79C1492.582,84.773,1450.772,55.701,1403.839,54.419C1354.73,53.078,1305.239,76.568,1283.249,120.499C1262.896,161.159,1284.034,206.828,1308.299,245.282C1330.473,280.422,1362.288,311.666,1403.839,311.601" fill="rgba(28, 83, 142, 0.4)" class="triangle-float1"></path><path d="M1016.257,209.219C1047.941,208.052,1080.959,199.742,1097.001,172.395C1113.198,144.783,1105.187,111.37,1090.273,83.044C1073.986,52.111,1051.212,19.575,1016.257,19.039C980.72,18.494,955.906,49.894,938.202,80.712C920.585,111.378,906.146,148.523,924.506,178.75C942.437,208.271,981.74,210.491,1016.257,209.219" fill="rgba(28, 83, 142, 0.4)" class="triangle-float2"></path><path d="M5.649,615.853C35.367,615.574,67.546,610.32,82.833,584.834C98.447,558.803,89.503,526.897,75.004,500.229C59.645,471.979,37.802,443.21,5.649,442.869C-26.893,442.524,-50.492,470.286,-66.304,498.73C-81.566,526.185,-90.531,559.543,-74.088,586.308C-58.186,612.194,-24.73,616.138,5.649,615.853" fill="rgba(28, 83, 142, 0.4)" class="triangle-float1"></path><path d="M586.001,544.927C601.701,545.492,618.672,540.288,625.838,526.307C632.617,513.081,624.628,498.123,616.298,485.815C609.203,475.331,598.611,468.557,586.001,467.443C570.711,466.093,552.906,466.487,544.761,479.498C536.32,492.982,542.357,510.15,550.839,523.608C558.672,536.036,571.32,544.399,586.001,544.927" fill="rgba(28, 83, 142, 0.4)" class="triangle-float3"></path><path d="M221.849,211.474C269.893,212.556,324.902,210.21,349.441,168.892C374.288,127.055,352.228,76.124,326.913,34.568C302.906,-4.841,267.979,-39.365,221.849,-40.558C173.896,-41.798,130.957,-12.639,106.93,28.879C82.858,70.475,78.236,122.689,103.835,163.363C128.087,201.897,176.33,210.449,221.849,211.474" fill="rgba(28, 83, 142, 0.4)" class="triangle-float3"></path><path d="M1307.097,440.393C1323.98,439.903,1336.431,426.135,1344.261,411.17C1351.45,397.431,1351.915,381.7,1345.093,367.776C1337.238,351.744,1324.949,335.142,1307.097,335.32C1289.416,335.497,1278.627,352.873,1270.394,368.522C1262.886,382.793,1258.663,399.081,1265.997,413.442C1273.983,429.08,1289.545,440.903,1307.097,440.393" fill="rgba(28, 83, 142, 0.4)" class="triangle-float1"></path></g><defs><mask id="SvgjsMask1067"><rect width="1440" height="560" fill="#ffffff"></rect></mask></defs></svg>